<?xml version="1.0" encoding="UTF-8"?>
<svg id="Layer_1" xmlns="http://www.w3.org/2000/svg" version="1.1" viewBox="0 0 338.73 216">
  <!-- Generator: Adobe Illustrator 30.1.0, SVG Export Plug-In . SVG Version: 2.1.1 Build 136)  -->
  <defs>
    <style>
      .st0 {
        fill: #ffd82a;
      }

      .st1 {
        fill: #b01c3d;
      }

      .st2 {
        fill: #ffe894;
      }
    </style>
  </defs>
  <polygon class="st0" points="231.61 91.47 235.85 84.89 230.89 78.82 238.47 80.82 242.7 74.23 243.15 82.06 250.72 84.06 243.42 86.88 243.86 94.71 238.91 88.64 231.61 91.47"/>
  <polygon class="st1" points="235.1 88.53 237.56 84.71 234.68 81.19 239.08 82.35 241.54 78.54 241.79 83.06 246.19 84.23 241.95 85.88 242.21 90.4 239.33 86.89 235.1 88.53"/>
  <path class="st1" d="M114.63,64.67c0,12.98-8.38,25.21-22.36,24.22h-4.19c.47-.58.64-1.51.64-3.03v-25.56c0-1.51-.17-2.45-.64-3.03h5.65c-.41.52-.64,1.51-.64,3.03v24.05c8.68.87,16.94-6.99,16.94-19.45s-9.96-20.26-20.09-20.26h-.12c-9.67.06-16.48,6.52-16.48,13.16,0,3.38,1.81,6.46,4.95,6.46,2.1,0,3.43-1.34,3.43-2.85,0-1.28-.93-2.1-1.86-2.1-.7,0-1.51.47-1.51,1.22-.41-.29-.76-.7-.76-1.51,0-1.57,1.34-3.38,3.73-3.38,2.62,0,5.12,2.1,5.12,5.53s-2.45,7.63-7.92,7.63c-6.17,0-9.84-5.36-9.84-11.12,0-8.79,8.62-17.64,21.02-17.7h.17c13.04,0,24.74,9.84,24.74,24.69ZM78.83,68.23c-2.56-.12-4.83-1.16-6.46-3.2-1.63-1.92-2.5-4.54-2.5-7.34,0-4.19,2.1-8.5,5.71-11.7,3.78-3.43,8.97-5.36,14.56-5.41h-.41c-5.65,0-10.89,1.92-14.73,5.41-3.61,3.2-5.71,7.51-5.71,11.7,0,2.79.87,5.41,2.5,7.34,1.69,2.1,4.02,3.2,6.75,3.2h.29ZM81.33,56.23c-2.15,0-3.14,1.63-3.14,2.79,0,.12,0,.29.06.41.17-.17.35-.35.52-.41,0-1.11.93-2.68,2.91-2.79h-.35ZM80.46,58.74h-.29c1.11.17,2.15,1.11,2.15,2.68,0,1.86-1.57,3.32-3.73,3.43h.29c2.33,0,4.02-1.51,4.02-3.43,0-1.69-1.22-2.68-2.45-2.68ZM89.6,57.86h-.58c.23.58.29,1.4.29,2.45v25.56c0,1.05-.06,1.86-.29,2.45h.58c.23-.58.29-1.4.29-2.45v-25.56c0-1.05-.06-1.86-.29-2.45ZM111.2,64.91c0-13.57-10.65-20.84-20.67-20.84h-.23c9.9.17,20.32,7.45,20.32,20.84,0,5.65-1.75,10.83-4.89,14.56-2.91,3.49-6.81,5.41-10.95,5.53h.23c4.25,0,8.27-1.98,11.29-5.53,3.14-3.73,4.89-8.91,4.89-14.56Z"/>
  <path class="st1" d="M131.57,87.9c-.23-.23-.93-.41-2.1-.41h-11.99c.47-.58.64-1.51.64-3.03v-26.78c0-1.11-.23-2.27-.64-2.79h11.47c1.22,0,1.75-.17,1.98-.41l.93,5.36-.06-.06c-.64-.47-1.75-.64-2.45-.64h-6.87v13.62h4.66c.99,0,2.39-.17,2.74-.64v5.53c-.41-.52-1.75-.64-2.74-.64h-4.66v6.23h7.51c.7,0,1.81-.17,2.45-.64l.06-.06-.93,5.36ZM118.41,86.92h.58c.23-.64.29-1.4.29-2.45v-26.78c0-.7-.06-1.51-.29-2.21h-.58c.23.7.29,1.51.29,2.21v26.78c0,1.05-.06,1.8-.29,2.45ZM129.3,72.94c-.81.23-1.75.41-2.15.41h2.15v-.41ZM129.3,76.78v-.35h-2.15c.87,0,1.63.17,2.15.35ZM130.52,55.13c-.35.23-.93.35-1.57.35.93,0,1.34.06,1.63.06l-.06-.41ZM131.22,58.97l-.23-.47c-.41,0-.7.06-1.63.06.47,0,1.34.12,1.86.41ZM131.16,87.21l.06-.35c-.35,0-.76.06-1.16.06h-.58c.7,0,1.4.12,1.69.29ZM131.81,83.42c-.64.23-1.34.41-1.81.41h1.63l.17-.41Z"/>
  <path class="st1" d="M150.73,78.82c0,5.59-4.43,9.49-9.14,9.49-5.3,0-8.21-3.67-8.21-7.69,0-3.26,2.56-5.65,5.12-5.65,2.27,0,3.67,1.63,3.67,3.2,0,.81-.35,1.22-.76,1.51,0-.76-.82-1.22-1.51-1.22-.93,0-1.98.87-1.98,2.27,0,1.57,1.34,3.14,3.67,3.14,2.62,0,4.72-2.21,4.72-5.12,0-6.87-10.07-8.73-10.07-16.36,0-4.02,2.79-7.8,7.22-7.8,1.34,0,2.5.35,3.03.35.41,0,.87-.23,1.05-.41v7.05c-.64-1.63-1.63-2.85-3.43-2.85-1.98,0-3.43,1.51-3.43,3.32,0,4.72,10.07,8.21,10.07,16.77ZM138.79,75.56h-.29c-2.21,0-4.54,2.04-4.54,5.07,0,3.44,2.39,7.1,7.63,7.1h.29c-5.07-.17-7.34-3.78-7.34-7.1,0-2.91,2.15-4.89,4.25-5.07ZM142.46,70.61c-2.62-2.33-5.07-4.54-5.07-8.21,0-3.43,2.21-7.1,6.35-7.22h-.29c-4.31,0-6.64,3.73-6.64,7.22,0,3.67,2.45,5.88,5.07,8.21,2.45,2.21,5.01,4.54,5.01,8.15,0,3.09-2.15,5.53-5.01,5.71h.29c2.97,0,5.3-2.5,5.3-5.71,0-3.61-2.56-5.94-5.01-8.15ZM141.53,78.59c.06-.06.12-.29.12-.52-.41-.12-.76-.17-1.16-.17h-.29c.52.06.99.29,1.34.7ZM146.94,59.43v-.58c-.64-.47-1.4-.7-2.27-.7h-.29c1.05.06,1.86.47,2.56,1.28Z"/>
  <path class="st1" d="M158.93,71.19c0-9.2,7.39-16.77,16.54-16.77,3.67,0,5.94.99,7.8,1.57.41.12.76-.12.87-.41l1.22,7.34-.18.06c-1.98-3.03-6.05-4.19-9.26-4.19-6.35,0-12.28,5.18-12.28,12.4s5.24,12.4,11.82,12.4c4.66,0,9.08-2.68,10.25-6.64h-4.48c-1.22,0-2.5.12-2.91.64v-5.24c.29.47,1.92.47,2.91.47h9.26c.87,8.03-6.64,15.14-15.02,15.14-9.14,0-16.54-7.51-16.54-16.77ZM175.82,55.01h-.35c-8.79,0-15.95,7.28-15.95,16.19s7.16,16.19,15.95,16.19h.35c-8.67-.12-15.72-7.34-15.72-16.19s7.05-16.07,15.72-16.19ZM187.05,76.38h-.58l-.17.76c-1.22,3.96-5.59,6.87-10.48,7.05h.23c5.07,0,9.61-2.97,10.83-7.05l.17-.76ZM184.49,61.24l-.12-.58c-2.27-1.75-5.36-2.45-7.86-2.45h-.23c2.68.06,6,.87,8.21,3.03ZM178.9,76.61c.18-.06.35-.12.58-.12v-3.14c-.23-.06-.41-.06-.58-.12v3.38Z"/>
  <path class="st1" d="M197.47,54.89c-.41.52-.64,1.51-.64,3.03v1.4l9.43,12.58v-13.97c0-1.51-.17-2.45-.64-3.03h5.65c-.41.52-.64,1.51-.64,3.03v26.55c0,1.51.23,2.5.64,3.03h-5.65c.47-.58.64-1.51.64-3.03v-5.41l-9.43-12.52v17.93c0,1.51.23,2.5.64,3.03h-5.65c.52-.58.64-1.51.64-3.03v-26.55c0-1.51-.12-2.45-.64-3.03h5.65ZM193.4,55.48h-.58c.18.64.23,1.46.23,2.45v26.55c0,.99-.06,1.8-.23,2.45h.58c.17-.64.23-1.46.23-2.45v-26.55c0-.99-.06-1.8-.23-2.45ZM196.83,64.62v.93l10.01,13.33v5.59c0,1.05-.06,1.86-.29,2.45h.58c.23-.58.29-1.4.29-2.45v-5.76l-10.6-14.09ZM207.14,55.48h-.58c.23.58.29,1.4.29,2.45v14.96l.58.76v-15.72c0-1.05-.06-1.86-.29-2.45Z"/>
  <path class="st1" d="M152.36,136.3V57.86c0-1.51-.17-2.45-.64-3.03h5.65c-.41.52-.64,1.51-.64,3.03v94.1c0,3.38,1.81,6.46,4.95,6.46,2.1,0,3.43-1.34,3.43-2.85,0-1.28-.93-2.1-1.86-2.1-.7,0-1.51.47-1.51,1.22-.41-.29-.76-.7-.76-1.51,0-1.57,1.34-3.38,3.73-3.38,2.62,0,5.12,2.1,5.12,5.53s-2.45,7.63-7.92,7.63c-6.17,0-9.55-5.42-9.55-11.18v-9.96c-.17-.52-1.16-.7-2.33-.7h-13.57c-1.16,0-2.15.18-2.33.7v4.54c0,1.51.23,2.5.64,3.03h-5.65c.47-.58.64-1.51.64-3.03v-39.42h-.99c-9.72,0-16.59,6.52-16.59,13.16,0,3.38,1.81,6.46,4.95,6.46,2.1,0,3.43-1.34,3.43-2.85,0-1.28-.93-2.1-1.86-2.1-.7,0-1.51.47-1.51,1.22-.41-.29-.76-.7-.76-1.51,0-1.57,1.34-3.38,3.73-3.38,2.62,0,5.12,2.1,5.12,5.53s-2.45,7.63-7.92,7.63c-6.17,0-9.84-5.36-9.84-11.12,0-8.85,9.02-17.87,21.54-17.87,1.81,0,4.08,0,5.71.23l-.23.35c-.29.58-.41,1.46-.41,2.68v30.97c.17.47,1.16.64,2.33.64h13.57c1.16,0,2.15-.17,2.33-.7ZM117.66,130.54c-2.56-.12-4.83-1.16-6.46-3.2-1.63-1.92-2.5-4.54-2.5-7.34,0-4.25,2.15-8.56,5.88-11.82,4.02-3.55,9.37-5.47,15.08-5.47h-.58c-5.71,0-11.06,1.92-15.08,5.47-3.73,3.26-5.88,7.57-5.88,11.82,0,2.79.87,5.41,2.5,7.34,1.69,2.1,4.08,3.2,6.75,3.2h.29ZM120.16,118.55c-2.15,0-3.14,1.63-3.14,2.79,0,.12.06.29.06.41.17-.17.35-.35.52-.41.06-1.11.93-2.68,2.91-2.79h-.35ZM119.29,121.05h-.29c1.11.17,2.15,1.11,2.15,2.68,0,1.86-1.57,3.32-3.73,3.44h.29c2.33,0,4.02-1.51,4.02-3.44,0-1.69-1.22-2.68-2.45-2.68ZM130.35,106.38v40c0,1.05-.06,1.86-.23,2.45h.58c.17-.58.23-1.4.23-2.45v-40h-.58ZM153.52,106.38c0-1.05-.06-50.38-.23-50.96h-.58c.17.58.23,49.91.23,50.96v30.1c-.23.76-1.16,1.11-2.91,1.11h.58c1.75,0,2.68-.35,2.91-1.11v-30.1ZM153.52,151.79v-10.13c-.23-.76-1.16-1.11-2.91-1.11h-.58c1.75,0,2.68.35,2.91,1.11v10.13c0,2.85.87,5.47,2.39,7.39,1.63,2.1,3.9,3.2,6.58,3.2h.35c-2.62-.12-4.77-1.16-6.35-3.2-1.51-1.92-2.39-4.54-2.39-7.39ZM164.7,150.39c-2.15,0-3.14,1.63-3.14,2.8,0,.17.06.29.06.41.17-.18.35-.29.52-.41.06-1.11.93-2.68,2.91-2.8h-.35ZM163.83,152.9h-.29c1.11.17,2.15,1.11,2.15,2.68,0,1.86-1.57,3.32-3.73,3.43h.29c2.33,0,4.02-1.46,4.02-3.43,0-1.69-1.22-2.68-2.45-2.68Z"/>
  <path class="st1" d="M166.15,114.41c-.41.52-.64,1.51-.64,3.03v26.55c0,1.51.23,2.5.64,3.03h-5.65c.47-.58.64-1.51.64-3.03v-26.55c0-1.51-.17-2.45-.64-3.03h5.65ZM162.02,146.43c.23-.58.29-1.4.29-2.44v-26.55c0-1.05-.06-1.86-.29-2.45h-.58c.23.58.29,1.4.29,2.45v26.55c0,1.05-.06,1.86-.29,2.44h.58Z"/>
  <path class="st1" d="M184.9,138.34c0,5.59-4.43,9.49-9.14,9.49-5.3,0-8.21-3.67-8.21-7.68,0-3.26,2.56-5.65,5.12-5.65,2.27,0,3.67,1.63,3.67,3.2,0,.81-.35,1.22-.76,1.51,0-.76-.82-1.22-1.51-1.22-.93,0-1.98.87-1.98,2.27,0,1.57,1.34,3.14,3.67,3.14,2.62,0,4.72-2.21,4.72-5.12,0-6.87-10.07-8.73-10.07-16.36,0-4.02,2.79-7.8,7.22-7.8,1.34,0,2.5.35,3.03.35.41,0,.87-.23,1.05-.41v7.05c-.64-1.63-1.63-2.85-3.43-2.85-1.98,0-3.43,1.51-3.43,3.32,0,4.72,10.07,8.21,10.07,16.77ZM172.96,135.08h-.29c-2.21,0-4.54,2.04-4.54,5.07,0,3.43,2.39,7.1,7.63,7.1h.29c-5.07-.18-7.34-3.79-7.34-7.1,0-2.91,2.15-4.89,4.25-5.07ZM176.63,130.13c-2.62-2.33-5.07-4.54-5.07-8.21,0-3.43,2.21-7.1,6.35-7.22h-.29c-4.31,0-6.64,3.73-6.64,7.22,0,3.67,2.45,5.88,5.07,8.21,2.45,2.21,5.01,4.54,5.01,8.15,0,3.09-2.15,5.53-5.01,5.71h.29c2.97,0,5.3-2.5,5.3-5.71,0-3.61-2.56-5.94-5.01-8.15ZM175.7,138.11c.06-.06.12-.29.12-.52-.41-.12-.76-.18-1.16-.18h-.29c.52.06.99.29,1.34.7ZM181.11,118.95v-.58c-.64-.47-1.4-.7-2.27-.7h-.29c1.05.06,1.86.47,2.56,1.28Z"/>
  <path class="st1" d="M196.07,147.02h-5.65c.47-.58.64-1.51.64-3.03v-25.33h-5.12c-.7,0-1.86.17-2.45.64l-.06.06.93-5.36c.23.23.76.41,1.98.41h13.8c1.22,0,1.75-.17,1.98-.41l.93,5.36-.06-.06c-.64-.47-1.75-.64-2.45-.64h-5.12v25.33c0,1.51.23,2.5.64,3.03ZM185.25,114.94c-.12,0-.23-.06-.41-.12l-.64,3.49c.17-.06.29-.12.41-.12l.64-3.26ZM191.65,118.66v25.33c0,1.05-.06,1.81-.29,2.44h.58c.23-.64.29-1.4.29-2.44v-25.33h-.58ZM201.72,114.65c-.35.23-.93.35-1.57.35.93,0,1.34.06,1.63.06l-.06-.41ZM202.42,118.49l-.23-.47c-.41,0-.7.06-1.63.06.47,0,1.34.12,1.86.41Z"/>
  <path class="st1" d="M234.44,130.71c0,9.2-7.45,16.65-16.54,16.65s-16.53-7.45-16.53-16.65,7.39-16.65,16.53-16.65,16.54,7.51,16.54,16.65ZM218.2,114.65h-.29c-8.79,0-15.95,7.22-15.95,16.07s7.16,16.07,15.95,16.07h.29c-8.67-.17-15.66-7.34-15.66-16.07s6.99-15.89,15.66-16.07ZM229.73,130.71c0-6.75-5.3-12.28-11.82-12.28s-11.82,5.53-11.82,12.28,5.24,12.28,11.82,12.28,11.82-5.47,11.82-12.28ZM218.2,117.85c6.7.17,12.11,5.88,12.11,12.87s-5.42,12.69-12.11,12.87h.29c6.81,0,12.4-5.76,12.4-12.87s-5.59-12.87-12.4-12.87h-.29Z"/>
  <path class="st1" d="M241.66,114.18c7.1,0,12.17,5.12,12.17,11.47,0,4.54-2.74,8.85-7.28,10.83.35,5.01,4.19,6.4,6.17,6.4.47,0,1.22-.12,1.51-.58v4.66c-.58.41-1.45.58-2.21.58-3.84,0-10.07-3.84-9.78-12.11.06-.99.12-2.1.41-2.8,3.55.29,6.75-3.14,6.75-6.93,0-2.97-2.33-7.1-7.1-7.1h-1.28v25.38c0,1.51.23,2.5.64,3.03h-5.65c.47-.58.64-1.51.64-3.03v-26.78c0-1.51-.17-2.45-.64-3.03h5.65ZM237.52,114.76h-.58c.23.58.29,1.34.29,2.45v26.78c0,1.05-.06,1.81-.29,2.44h.58c.23-.64.29-1.4.29-2.44v-26.78c0-1.11-.06-1.86-.29-2.45ZM243.4,135.37c.06-.76.12-1.57.23-2.15,3.73,0,6.93-3.49,6.93-7.51,0-3.09-2.45-7.69-7.69-7.69h-.58c5.24,0,7.69,4.6,7.69,7.69,0,4.02-3.2,7.51-6.93,7.51-.12.58-.17,1.4-.23,2.15v.06c-.18,4.37,1.57,7.05,3.03,8.56,1.75,1.81,4.13,2.97,6.17,2.97h.29c-1.98-.12-4.25-1.22-5.88-2.97-1.45-1.51-3.2-4.19-3.03-8.56v-.06ZM253.65,143.35c-.23.06-.47.06-.64.12h.29c.06,0,.23,0,.35-.06v-.06Z"/>
  <path class="st1" d="M270.3,117.44c.58-1.57.35-2.5-.06-3.03h6.69c-.76.47-1.63,1.63-2.27,3.03l-7.68,17.23v9.32c0,1.51.23,2.5.64,3.03h-5.65c.47-.58.64-1.51.64-3.03v-9.02l-7.8-17.53c-.64-1.4-1.51-2.56-2.27-3.03h6.7c-.41.52-.64,1.46-.06,3.03l5.53,13.04,5.59-13.04ZM255.92,117.21c-.41-.87-.87-1.63-1.34-2.21h-.58c.47.58.93,1.34,1.34,2.21l7.86,17.64v9.14c0,1.05-.06,1.81-.29,2.44h.58c.23-.64.29-1.4.29-2.44v-9.14l-7.86-17.64ZM271.7,114.99h-.58c.17.64.17,1.46-.29,2.62l-5.82,13.68.29.64,6.11-14.32c.47-1.16.47-1.98.29-2.62Z"/>
  <path class="st0" d="M218.11,108.25s0,23.25-11.87,22.97c0,0,12.18.56,12.18,20.2,0,0-.32-19.64,11.14-19.64,0,0-11.46-.83-11.46-23.52Z"/>
  <path class="st1" d="M218.05,114.5s0,17.03-8.69,16.83c0,0,8.93.41,8.93,14.8,0,0-.23-14.39,8.17-14.39,0,0-8.4-.61-8.4-17.23h0Z"/>
  <path class="st0" d="M217.99,120.47s0,10.6-5.42,10.48c0,0,5.56.25,5.56,9.21,0,0-.15-8.96,5.08-8.96,0,0-5.23-.38-5.23-10.73h0Z"/>
  <polygon class="st0" points="236.82 87.06 238.39 84.62 236.55 82.38 239.36 83.11 240.93 80.68 241.09 83.57 243.9 84.32 241.19 85.37 241.36 88.26 239.52 86.01 236.82 87.06"/>
  <polygon class="st0" points="88.77 122 88.04 114.21 80.38 112.51 87.57 109.39 86.82 101.6 92.01 107.47 99.2 104.35 95.21 111.09 100.4 116.96 92.76 115.27 88.77 122"/>
  <polygon class="st1" points="89.7 117.54 89.26 113.01 84.83 112.03 88.99 110.22 88.57 105.7 91.57 109.1 95.74 107.3 93.43 111.21 96.44 114.61 92 113.62 89.7 117.54"/>
  <polygon class="st0" points="90.14 115.32 89.86 112.43 87.03 111.8 89.69 110.64 89.42 107.76 91.34 109.93 94 108.78 92.53 111.28 94.45 113.45 91.61 112.82 90.14 115.32"/>
  <path d="M-87.55,222.64s18.85-16.14,0-29.56-16.61-46.56,4.19-49.03c0,0,16.16-1.6,12.12,9.85,0,0-.29-9.18-12.07-6.32,0,0-22.13,4.93-20.31,27.18,0,0,1.02,8.55,14.46,14.21,0,0,35.21,14.17,1.61,33.67Z"/>
  <path d="M-87.16,223.03s16.14-18.85,29.56,0c13.43,18.85,46.56,16.61,49.03-4.19,0,0,1.6-16.16-9.85-12.12,0,0,9.18.29,6.32,12.07,0,0-4.93,22.13-27.18,20.31,0,0-8.55-1.02-14.21-14.46,0,0-14.17-35.21-33.67-1.61Z"/>
  <polygon class="st0" points="7.11 210.11 9.75 202.74 3.54 197.95 11.38 198.18 14 190.8 16.22 198.32 24.04 198.54 17.58 202.96 19.78 210.48 13.58 205.69 7.11 210.11"/>
  <polygon class="st2" points="9.85 206.45 11.37 202.17 7.77 199.4 12.32 199.52 13.84 195.26 15.12 199.61 19.67 199.75 15.92 202.31 17.19 206.66 13.6 203.89 9.85 206.45"/>
  <polygon class="st0" points="11.19 204.63 12.16 201.9 9.87 200.13 12.77 200.21 13.74 197.48 14.56 200.26 17.46 200.35 15.07 201.99 15.88 204.76 13.59 202.99 11.19 204.63"/>
  <polygon class="st0" points="321.17 22.87 323.81 15.5 317.6 10.71 325.43 10.94 328.06 3.56 330.27 11.08 338.1 11.31 331.63 15.72 333.83 23.24 327.64 18.46 321.17 22.87"/>
  <polygon class="st2" points="323.9 19.21 325.43 14.93 321.83 12.16 326.37 12.29 327.9 8.02 329.18 12.37 333.72 12.51 329.97 15.07 331.25 19.42 327.65 16.65 323.9 19.21"/>
  <polygon class="st0" points="325.24 17.39 326.22 14.66 323.92 12.89 326.82 12.97 327.8 10.24 328.61 13.02 331.52 13.11 329.12 14.75 329.94 17.53 327.64 15.76 325.24 17.39"/>
  <polygon class="st0" points="6.19 20.81 8.83 13.44 2.62 8.66 10.45 8.88 13.08 1.5 15.29 9.02 23.12 9.25 16.65 13.66 18.85 21.18 12.66 16.4 6.19 20.81"/>
  <polygon class="st2" points="8.92 17.16 10.44 12.87 6.85 10.1 11.39 10.23 12.92 5.96 14.2 10.31 18.74 10.45 14.99 13.01 16.27 17.37 12.67 14.59 8.92 17.16"/>
  <polygon class="st0" points="10.26 15.34 11.24 12.6 8.94 10.83 11.84 10.91 12.82 8.19 13.63 10.96 16.54 11.05 14.14 12.69 14.96 15.47 12.66 13.7 10.26 15.34"/>
  <polygon class="st0" points="321.17 210.59 323.81 203.23 317.6 198.44 325.43 198.66 328.06 191.29 330.27 198.8 338.1 199.03 331.63 203.44 333.83 210.96 327.64 206.18 321.17 210.59"/>
  <polygon class="st2" points="323.9 206.94 325.43 202.66 321.83 199.88 326.37 200.01 327.9 195.74 329.18 200.09 333.72 200.23 329.97 202.79 331.25 207.15 327.65 204.37 323.9 206.94"/>
  <polygon class="st0" points="325.24 205.12 326.22 202.38 323.92 200.61 326.82 200.69 327.8 197.97 328.61 200.75 331.52 200.83 329.12 202.47 329.94 205.25 327.64 203.48 325.24 205.12"/>
  <polygon class="st0" points="35.08 17.23 36.05 14.5 33.75 12.73 36.65 12.81 37.63 10.08 38.45 12.86 41.35 12.95 38.95 14.59 39.77 17.37 37.47 15.59 35.08 17.23"/>
  <polygon class="st0" points="53.31 17.23 54.28 14.5 51.98 12.73 54.88 12.81 55.86 10.08 56.68 12.86 59.58 12.95 57.18 14.59 58 17.37 55.7 15.59 53.31 17.23"/>
  <polygon class="st0" points="71.54 17.23 72.51 14.5 70.21 12.73 73.11 12.81 74.09 10.08 74.91 12.86 77.81 12.95 75.41 14.59 76.23 17.37 73.93 15.59 71.54 17.23"/>
  <polygon class="st0" points="86.78 17.23 87.75 14.5 85.46 12.73 88.36 12.81 89.33 10.08 90.15 12.86 93.05 12.95 90.66 14.59 91.47 17.37 89.18 15.59 86.78 17.23"/>
  <polygon class="st0" points="105.01 17.23 105.99 14.5 103.69 12.73 106.59 12.81 107.56 10.08 108.38 12.86 111.28 12.95 108.89 14.59 109.7 17.37 107.41 15.59 105.01 17.23"/>
  <polygon class="st0" points="123.24 17.23 124.22 14.5 121.92 12.73 124.82 12.81 125.8 10.08 126.61 12.86 129.51 12.95 127.12 14.59 127.94 17.37 125.64 15.59 123.24 17.23"/>
  <polygon class="st0" points="141.47 17.39 142.45 14.66 140.15 12.89 143.05 12.97 144.03 10.24 144.84 13.02 147.75 13.11 145.35 14.75 146.17 17.53 143.87 15.76 141.47 17.39"/>
  <polygon class="st0" points="159.7 17.39 160.68 14.66 158.38 12.89 161.28 12.97 162.26 10.24 163.07 13.02 165.98 13.11 163.58 14.75 164.4 17.53 162.1 15.76 159.7 17.39"/>
  <polygon class="st0" points="177.93 17.39 178.91 14.66 176.61 12.89 179.51 12.97 180.49 10.24 181.3 13.02 184.21 13.11 181.81 14.75 182.63 17.53 180.33 15.76 177.93 17.39"/>
  <polygon class="st0" points="199.81 17.39 200.78 14.66 198.49 12.89 201.39 12.97 202.36 10.24 203.18 13.02 206.08 13.11 203.69 14.75 204.5 17.53 202.2 15.76 199.81 17.39"/>
  <polygon class="st0" points="218.04 17.39 219.01 14.66 216.72 12.89 219.62 12.97 220.59 10.24 221.41 13.02 224.31 13.11 221.92 14.75 222.73 17.53 220.44 15.76 218.04 17.39"/>
  <polygon class="st0" points="236.27 17.39 237.24 14.66 234.95 12.89 237.85 12.97 238.82 10.24 239.64 13.02 242.54 13.11 240.15 14.75 240.96 17.53 238.67 15.76 236.27 17.39"/>
  <polygon class="st0" points="252.36 17.39 253.34 14.66 251.04 12.89 253.94 12.97 254.92 10.24 255.73 13.02 258.64 13.11 256.24 14.75 257.06 17.53 254.76 15.76 252.36 17.39"/>
  <polygon class="st0" points="270.6 17.39 271.57 14.66 269.27 12.89 272.17 12.97 273.15 10.24 273.97 13.02 276.87 13.11 274.47 14.75 275.29 17.53 272.99 15.76 270.6 17.39"/>
  <polygon class="st0" points="288.83 17.39 289.8 14.66 287.5 12.89 290.4 12.97 291.38 10.24 292.2 13.02 295.1 13.11 292.7 14.75 293.52 17.53 291.22 15.76 288.83 17.39"/>
  <polygon class="st0" points="305.99 17.39 306.96 14.66 304.67 12.89 307.57 12.97 308.54 10.24 309.36 13.02 312.26 13.11 309.87 14.75 310.68 17.53 308.38 15.76 305.99 17.39"/>
  <polygon class="st0" points="325.37 48.73 326.35 46 324.05 44.22 326.95 44.31 327.93 41.58 328.74 44.36 331.65 44.45 329.25 46.08 330.07 48.86 327.77 47.09 325.37 48.73"/>
  <polygon class="st0" points="325.24 34.01 326.22 31.28 323.92 29.51 326.82 29.59 327.8 26.86 328.61 29.64 331.52 29.73 329.12 31.36 329.94 34.14 327.64 32.37 325.24 34.01"/>
  <polygon class="st0" points="325.31 78.17 326.28 75.43 323.98 73.66 326.89 73.75 327.86 71.02 328.68 73.8 331.58 73.89 329.18 75.52 330 78.3 327.7 76.53 325.31 78.17"/>
  <polygon class="st0" points="325.18 63.45 326.15 60.72 323.86 58.94 326.76 59.03 327.73 56.3 328.55 59.08 331.45 59.17 329.06 60.8 329.87 63.58 327.58 61.81 325.18 63.45"/>
  <polygon class="st0" points="325.28 107.61 326.25 104.87 323.95 103.1 326.85 103.18 327.83 100.46 328.65 103.24 331.55 103.33 329.15 104.96 329.97 107.74 327.67 105.97 325.28 107.61"/>
  <polygon class="st0" points="325.15 92.89 326.12 90.15 323.82 88.38 326.72 88.46 327.7 85.74 328.52 88.52 331.42 88.61 329.02 90.24 329.84 93.02 327.54 91.25 325.15 92.89"/>
  <polygon class="st0" points="325.21 137.05 326.19 134.31 323.89 132.54 326.79 132.62 327.77 129.9 328.58 132.68 331.48 132.76 329.09 134.4 329.9 137.18 327.61 135.41 325.21 137.05"/>
  <polygon class="st0" points="325.08 122.33 326.06 119.59 323.76 117.82 326.66 117.9 327.64 115.18 328.45 117.96 331.36 118.05 328.96 119.68 329.78 122.46 327.48 120.69 325.08 122.33"/>
  <polygon class="st0" points="325.18 166.49 326.15 163.75 323.86 161.98 326.76 162.06 327.73 159.34 328.55 162.12 331.45 162.2 329.06 163.84 329.87 166.62 327.58 164.85 325.18 166.49"/>
  <polygon class="st0" points="325.05 151.77 326.02 149.03 323.73 147.26 326.63 147.34 327.6 144.62 328.42 147.4 331.32 147.48 328.93 149.12 329.74 151.9 327.45 150.13 325.05 151.77"/>
  <polygon class="st0" points="324.99 181.21 325.96 178.47 323.66 176.7 326.56 176.78 327.54 174.06 328.36 176.84 331.26 176.92 328.86 178.56 329.68 181.34 327.38 179.57 324.99 181.21"/>
  <polygon class="st0" points="30.2 204.06 31.17 201.33 28.87 199.56 31.78 199.64 32.75 196.91 33.57 199.69 36.47 199.78 34.07 201.42 34.89 204.2 32.59 202.43 30.2 204.06"/>
  <polygon class="st0" points="48.43 204.06 49.4 201.33 47.11 199.56 50.01 199.64 50.98 196.91 51.8 199.69 54.7 199.78 52.31 201.42 53.12 204.2 50.82 202.43 48.43 204.06"/>
  <polygon class="st0" points="66.66 204.06 67.63 201.33 65.34 199.56 68.24 199.64 69.21 196.91 70.03 199.69 72.93 199.78 70.54 201.42 71.35 204.2 69.05 202.43 66.66 204.06"/>
  <polygon class="st0" points="81.9 204.06 82.88 201.33 80.58 199.56 83.48 199.64 84.46 196.91 85.27 199.69 88.18 199.78 85.78 201.42 86.6 204.2 84.3 202.43 81.9 204.06"/>
  <polygon class="st0" points="100.13 204.06 101.11 201.33 98.81 199.56 101.71 199.64 102.69 196.91 103.5 199.69 106.41 199.78 104.01 201.42 104.83 204.2 102.53 202.43 100.13 204.06"/>
  <polygon class="st0" points="118.36 204.06 119.34 201.33 117.04 199.56 119.94 199.64 120.92 196.91 121.73 199.69 124.64 199.78 122.24 201.42 123.06 204.2 120.76 202.43 118.36 204.06"/>
  <polygon class="st0" points="136.59 204.23 137.57 201.49 135.27 199.72 138.17 199.8 139.15 197.08 139.97 199.86 142.87 199.94 140.47 201.58 141.29 204.36 138.99 202.59 136.59 204.23"/>
  <polygon class="st0" points="154.83 204.23 155.8 201.49 153.5 199.72 156.4 199.8 157.38 197.08 158.2 199.86 161.1 199.94 158.7 201.58 159.52 204.36 157.22 202.59 154.83 204.23"/>
  <polygon class="st0" points="173.06 204.23 174.03 201.49 171.73 199.72 174.63 199.8 175.61 197.08 176.43 199.86 179.33 199.94 176.93 201.58 177.75 204.36 175.45 202.59 173.06 204.23"/>
  <polygon class="st0" points="194.93 204.23 195.91 201.49 193.61 199.72 196.51 199.8 197.48 197.08 198.3 199.86 201.2 199.94 198.81 201.58 199.62 204.36 197.33 202.59 194.93 204.23"/>
  <polygon class="st0" points="213.16 204.23 214.14 201.49 211.84 199.72 214.74 199.8 215.72 197.08 216.53 199.86 219.43 199.94 217.04 201.58 217.85 204.36 215.56 202.59 213.16 204.23"/>
  <polygon class="st0" points="231.39 204.23 232.37 201.49 230.07 199.72 232.97 199.8 233.95 197.08 234.76 199.86 237.66 199.94 235.27 201.58 236.09 204.36 233.79 202.59 231.39 204.23"/>
  <polygon class="st0" points="247.49 204.23 248.46 201.49 246.16 199.72 249.06 199.8 250.04 197.08 250.86 199.86 253.76 199.94 251.36 201.58 252.18 204.36 249.88 202.59 247.49 204.23"/>
  <polygon class="st0" points="265.72 204.23 266.69 201.49 264.39 199.72 267.3 199.8 268.27 197.08 269.09 199.86 271.99 199.94 269.59 201.58 270.41 204.36 268.11 202.59 265.72 204.23"/>
  <polygon class="st0" points="283.95 204.23 284.92 201.49 282.63 199.72 285.53 199.8 286.5 197.08 287.32 199.86 290.22 199.94 287.83 201.58 288.64 204.36 286.34 202.59 283.95 204.23"/>
  <polygon class="st0" points="301.11 204.23 302.09 201.49 299.79 199.72 302.69 199.8 303.67 197.08 304.48 199.86 307.38 199.94 304.99 201.58 305.8 204.36 303.51 202.59 301.11 204.23"/>
  <polygon class="st0" points="11.97 45.09 12.94 42.35 10.64 40.58 13.54 40.66 14.52 37.94 15.34 40.72 18.24 40.81 15.84 42.44 16.66 45.22 14.36 43.45 11.97 45.09"/>
  <polygon class="st0" points="11.84 30.37 12.81 27.63 10.52 25.86 13.42 25.94 14.39 23.22 15.21 26 18.11 26.09 15.72 27.72 16.53 30.5 14.23 28.73 11.84 30.37"/>
  <polygon class="st0" points="11.9 74.53 12.88 71.79 10.58 70.02 13.48 70.1 14.46 67.38 15.27 70.16 18.18 70.24 15.78 71.88 16.6 74.66 14.3 72.89 11.9 74.53"/>
  <polygon class="st0" points="11.77 59.81 12.75 57.07 10.45 55.3 13.35 55.38 14.33 52.66 15.14 55.44 18.05 55.52 15.65 57.16 16.47 59.94 14.17 58.17 11.77 59.81"/>
  <polygon class="st0" points="11.87 103.97 12.84 101.23 10.55 99.46 13.45 99.54 14.42 96.82 15.24 99.59 18.14 99.68 15.75 101.32 16.56 104.1 14.27 102.33 11.87 103.97"/>
  <polygon class="st0" points="11.74 89.25 12.72 86.51 10.42 84.74 13.32 84.82 14.3 82.1 15.11 84.88 18.01 84.96 15.62 86.6 16.44 89.38 14.14 87.61 11.74 89.25"/>
  <polygon class="st0" points="11.81 133.41 12.78 130.67 10.48 128.9 13.38 128.98 14.36 126.26 15.18 129.03 18.08 129.12 15.68 130.76 16.5 133.54 14.2 131.77 11.81 133.41"/>
  <polygon class="st0" points="11.68 118.69 12.65 115.95 10.35 114.18 13.26 114.26 14.23 111.54 15.05 114.31 17.95 114.4 15.55 116.04 16.37 118.82 14.07 117.05 11.68 118.69"/>
  <polygon class="st0" points="11.77 162.84 12.75 160.11 10.45 158.34 13.35 158.42 14.33 155.69 15.14 158.47 18.05 158.56 15.65 160.2 16.47 162.98 14.17 161.21 11.77 162.84"/>
  <polygon class="st0" points="11.65 148.12 12.62 145.39 10.32 143.62 13.22 143.7 14.2 140.97 15.02 143.75 17.92 143.84 15.52 145.48 16.34 148.26 14.04 146.49 11.65 148.12"/>
  <polygon class="st0" points="11.58 177.56 12.56 174.83 10.26 173.06 13.16 173.14 14.13 170.41 14.95 173.19 17.85 173.28 15.46 174.92 16.27 177.7 13.98 175.93 11.58 177.56"/>
</svg>